<svg xmlns="http://www.w3.org/2000/svg" xmlns:xlink="http://www.w3.org/1999/xlink" version="1.1" width="256" height="256" viewBox="0 0 256 256" xml:space="preserve">

<defs>
</defs>
<g style="stroke: none; stroke-width: 0; stroke-dasharray: none; stroke-linecap: butt; stroke-linejoin: miter; stroke-miterlimit: 10; fill: none; fill-rule: nonzero; opacity: 1;" transform="translate(1.4065934065934016 1.4065934065934016) scale(2.81 2.81)" >
	<path d="M 67.165 90 h -44.33 c -3.549 0 -6.436 -2.887 -6.436 -6.436 V 23.983 c 0 -1.657 1.343 -3 3 -3 h 51.201 c 1.657 0 3 1.343 3 3 v 59.582 C 73.601 87.113 70.714 90 67.165 90 z M 22.399 26.983 v 56.582 c 0 0.24 0.196 0.436 0.436 0.436 h 44.33 c 0.24 0 0.436 -0.195 0.436 -0.436 V 26.983 H 22.399 z" style="stroke: none; stroke-width: 1; stroke-dasharray: none; stroke-linecap: butt; stroke-linejoin: miter; stroke-miterlimit: 10; fill: rgb(0,0,0); fill-rule: nonzero; opacity: 1;" transform=" matrix(1 0 0 1 0 0) " stroke-linecap="round" />
	<path d="M 72.541 26.983 H 17.459 c -3.549 0 -6.436 -2.887 -6.436 -6.436 v -4.234 c 0 -3.549 2.887 -6.436 6.436 -6.436 h 55.082 c 3.549 0 6.436 2.887 6.436 6.436 v 4.234 C 78.977 24.096 76.09 26.983 72.541 26.983 z M 17.459 15.876 c -0.24 0 -0.436 0.196 -0.436 0.436 v 4.234 c 0 0.24 0.196 0.436 0.436 0.436 h 55.082 c 0.24 0 0.436 -0.196 0.436 -0.436 v -4.234 c 0 -0.24 -0.195 -0.436 -0.436 -0.436 H 17.459 z" style="stroke: none; stroke-width: 1; stroke-dasharray: none; stroke-linecap: butt; stroke-linejoin: miter; stroke-miterlimit: 10; fill: rgb(0,0,0); fill-rule: nonzero; opacity: 1;" transform=" matrix(1 0 0 1 0 0) " stroke-linecap="round" />
	<path d="M 56.913 15.876 H 33.086 c -1.657 0 -3 -1.343 -3 -3 v -6.44 C 30.086 2.887 32.974 0 36.522 0 h 16.955 c 3.549 0 6.436 2.887 6.436 6.436 v 6.44 C 59.913 14.533 58.57 15.876 56.913 15.876 z M 36.086 9.876 h 17.827 v -3.44 c 0 -0.24 -0.195 -0.436 -0.436 -0.436 H 36.522 c -0.24 0 -0.436 0.196 -0.436 0.436 V 9.876 z" style="stroke: none; stroke-width: 1; stroke-dasharray: none; stroke-linecap: butt; stroke-linejoin: miter; stroke-miterlimit: 10; fill: rgb(0,0,0); fill-rule: nonzero; opacity: 1;" transform=" matrix(1 0 0 1 0 0) " stroke-linecap="round" />
	<path d="M 45 78.889 c -1.657 0 -3 -1.343 -3 -3 V 35.092 c 0 -1.657 1.343 -3 3 -3 c 1.657 0 3 1.343 3 3 v 40.797 C 48 77.546 46.657 78.889 45 78.889 z" style="stroke: none; stroke-width: 1; stroke-dasharray: none; stroke-linecap: butt; stroke-linejoin: miter; stroke-miterlimit: 10; fill: rgb(0,0,0); fill-rule: nonzero; opacity: 1;" transform=" matrix(1 0 0 1 0 0) " stroke-linecap="round" />
	<path d="M 57.914 78.889 c -1.657 0 -3 -1.343 -3 -3 V 35.092 c 0 -1.657 1.343 -3 3 -3 s 3 1.343 3 3 v 40.797 C 60.914 77.546 59.571 78.889 57.914 78.889 z" style="stroke: none; stroke-width: 1; stroke-dasharray: none; stroke-linecap: butt; stroke-linejoin: miter; stroke-miterlimit: 10; fill: rgb(0,0,0); fill-rule: nonzero; opacity: 1;" transform=" matrix(1 0 0 1 0 0) " stroke-linecap="round" />
	<path d="M 32.086 78.889 c -1.657 0 -3 -1.343 -3 -3 V 35.092 c 0 -1.657 1.343 -3 3 -3 s 3 1.343 3 3 v 40.797 C 35.086 77.546 33.743 78.889 32.086 78.889 z" style="stroke: none; stroke-width: 1; stroke-dasharray: none; stroke-linecap: butt; stroke-linejoin: miter; stroke-miterlimit: 10; fill: rgb(0,0,0); fill-rule: nonzero; opacity: 1;" transform=" matrix(1 0 0 1 0 0) " stroke-linecap="round" />
</g>
</svg>