<svg xmlns="http://www.w3.org/2000/svg" xmlns:xlink="http://www.w3.org/1999/xlink" version="1.1" width="256" height="256" viewBox="0 0 256 256" xml:space="preserve">

<defs>
</defs>
<g style="stroke: none; stroke-width: 0; stroke-dasharray: none; stroke-linecap: butt; stroke-linejoin: miter; stroke-miterlimit: 10; fill: none; fill-rule: nonzero; opacity: 1;" transform="translate(1.4065934065934016 1.4065934065934016) scale(2.81 2.81)" >
	<path d="M 73.435 41.5 h -1.577 V 19.272 C 71.857 8.646 63.212 0 52.586 0 H 39.074 C 28.447 0 19.802 8.646 19.802 19.272 c 0 1.933 1.567 3.5 3.5 3.5 s 3.5 -1.567 3.5 -3.5 C 26.802 12.505 32.307 7 39.074 7 h 13.512 c 6.767 0 12.271 5.505 12.271 12.272 V 41.5 H 21.643 h -5.078 c -1.933 0 -3.5 1.567 -3.5 3.5 v 25.729 C 13.065 81.354 21.71 90 32.337 90 h 25.326 c 10.626 0 19.271 -8.646 19.271 -19.271 V 45 C 76.935 43.067 75.367 41.5 73.435 41.5 z M 69.935 70.729 C 69.935 77.495 64.43 83 57.663 83 H 32.337 c -6.767 0 -12.272 -5.505 -12.272 -12.271 V 48.5 h 1.578 h 46.715 h 1.577 V 70.729 z" style="stroke: none; stroke-width: 1; stroke-dasharray: none; stroke-linecap: butt; stroke-linejoin: miter; stroke-miterlimit: 10; fill: rgba(39, 40, 42, 0.302); fill-rule: nonzero; opacity: 1;" transform=" matrix(1 0 0 1 0 0) " stroke-linecap="round" />
	<path d="M 45 73.89 c -1.933 0 -3.5 -1.567 -3.5 -3.5 v -8.274 c 0 -1.933 1.567 -3.5 3.5 -3.5 c 1.933 0 3.5 1.567 3.5 3.5 v 8.274 C 48.5 72.322 46.933 73.89 45 73.89 z" style="stroke: none; stroke-width: 1; stroke-dasharray: none; stroke-linecap: butt; stroke-linejoin: miter; stroke-miterlimit: 10; fill: rgba(39, 40, 42, 0.302); fill-rule: nonzero; opacity: 1;" transform=" matrix(1 0 0 1 0 0) " stroke-linecap="round" />
</g>
</svg>